<mxfile>
    <diagram id="xtRqI0r-50Fc09yyuAlZ" name="Page-1">
        <mxGraphModel dx="1117" dy="534" grid="1" gridSize="10" guides="1" tooltips="1" connect="1" arrows="1" fold="1" page="1" pageScale="1" pageWidth="827" pageHeight="1169" math="0" shadow="0">
            <root>
                <mxCell id="0"/>
                <mxCell id="1" parent="0"/>
                <mxCell id="2" value="Command" style="swimlane;fontStyle=1;align=center;verticalAlign=top;childLayout=stackLayout;horizontal=1;startSize=26;horizontalStack=0;resizeParent=1;resizeParentMax=0;resizeLast=0;collapsible=1;marginBottom=0;" parent="1" vertex="1">
                    <mxGeometry x="280" y="40" width="200" height="90" as="geometry"/>
                </mxCell>
                <mxCell id="3" value="+ execute(): void&#10;+ undo(): void&#10;+ redo(): void" style="text;strokeColor=none;fillColor=none;align=left;verticalAlign=top;spacingLeft=4;spacingRight=4;overflow=hidden;rotatable=0;points=[[0,0.5],[1,0.5]];portConstraint=eastwest;" parent="2" vertex="1">
                    <mxGeometry y="26" width="200" height="64" as="geometry"/>
                </mxCell>
                <mxCell id="8" value="Remote&#10;" style="swimlane;fontStyle=1;align=center;verticalAlign=top;childLayout=stackLayout;horizontal=1;startSize=26;horizontalStack=0;resizeParent=1;resizeParentMax=0;resizeLast=0;collapsible=1;marginBottom=0;" parent="1" vertex="1">
                    <mxGeometry x="40" y="40" width="160" height="52" as="geometry"/>
                </mxCell>
                <mxCell id="9" value="+ submit(command): void&#10;" style="text;strokeColor=none;fillColor=none;align=left;verticalAlign=top;spacingLeft=4;spacingRight=4;overflow=hidden;rotatable=0;points=[[0,0.5],[1,0.5]];portConstraint=eastwest;" parent="8" vertex="1">
                    <mxGeometry y="26" width="160" height="26" as="geometry"/>
                </mxCell>
                <mxCell id="12" value="" style="endArrow=block;endFill=1;html=1;edgeStyle=orthogonalEdgeStyle;align=left;verticalAlign=top;exitX=1;exitY=0.25;exitDx=0;exitDy=0;" parent="1" edge="1" source="8">
                    <mxGeometry x="-1" relative="1" as="geometry">
                        <mxPoint x="330" y="280" as="sourcePoint"/>
                        <mxPoint x="280" y="53" as="targetPoint"/>
                    </mxGeometry>
                </mxCell>
                <mxCell id="13" value="start&#10;" style="swimlane;fontStyle=1;align=center;verticalAlign=top;childLayout=stackLayout;horizontal=1;startSize=26;horizontalStack=0;resizeParent=1;resizeParentMax=0;resizeLast=0;collapsible=1;marginBottom=0;" vertex="1" parent="1">
                    <mxGeometry x="120" y="240" width="160" height="86" as="geometry"/>
                </mxCell>
                <mxCell id="14" value="- car: Car" style="text;strokeColor=none;fillColor=none;align=left;verticalAlign=top;spacingLeft=4;spacingRight=4;overflow=hidden;rotatable=0;points=[[0,0.5],[1,0.5]];portConstraint=eastwest;" vertex="1" parent="13">
                    <mxGeometry y="26" width="160" height="26" as="geometry"/>
                </mxCell>
                <mxCell id="15" value="" style="line;strokeWidth=1;fillColor=none;align=left;verticalAlign=middle;spacingTop=-1;spacingLeft=3;spacingRight=3;rotatable=0;labelPosition=right;points=[];portConstraint=eastwest;" vertex="1" parent="13">
                    <mxGeometry y="52" width="160" height="8" as="geometry"/>
                </mxCell>
                <mxCell id="16" value="+ constructor(car)" style="text;strokeColor=none;fillColor=none;align=left;verticalAlign=top;spacingLeft=4;spacingRight=4;overflow=hidden;rotatable=0;points=[[0,0.5],[1,0.5]];portConstraint=eastwest;" vertex="1" parent="13">
                    <mxGeometry y="60" width="160" height="26" as="geometry"/>
                </mxCell>
                <mxCell id="17" value="stopCar" style="swimlane;fontStyle=1;align=center;verticalAlign=top;childLayout=stackLayout;horizontal=1;startSize=26;horizontalStack=0;resizeParent=1;resizeParentMax=0;resizeLast=0;collapsible=1;marginBottom=0;" vertex="1" parent="1">
                    <mxGeometry x="480" y="240" width="160" height="86" as="geometry"/>
                </mxCell>
                <mxCell id="18" value="- car: Car" style="text;strokeColor=none;fillColor=none;align=left;verticalAlign=top;spacingLeft=4;spacingRight=4;overflow=hidden;rotatable=0;points=[[0,0.5],[1,0.5]];portConstraint=eastwest;" vertex="1" parent="17">
                    <mxGeometry y="26" width="160" height="26" as="geometry"/>
                </mxCell>
                <mxCell id="19" value="" style="line;strokeWidth=1;fillColor=none;align=left;verticalAlign=middle;spacingTop=-1;spacingLeft=3;spacingRight=3;rotatable=0;labelPosition=right;points=[];portConstraint=eastwest;" vertex="1" parent="17">
                    <mxGeometry y="52" width="160" height="8" as="geometry"/>
                </mxCell>
                <mxCell id="20" value="+ constructor(car)" style="text;strokeColor=none;fillColor=none;align=left;verticalAlign=top;spacingLeft=4;spacingRight=4;overflow=hidden;rotatable=0;points=[[0,0.5],[1,0.5]];portConstraint=eastwest;" vertex="1" parent="17">
                    <mxGeometry y="60" width="160" height="26" as="geometry"/>
                </mxCell>
                <mxCell id="21" value="" style="endArrow=block;dashed=1;endFill=0;endSize=12;html=1;exitX=0.5;exitY=0;exitDx=0;exitDy=0;" edge="1" parent="1" source="13">
                    <mxGeometry width="160" relative="1" as="geometry">
                        <mxPoint x="330" y="280" as="sourcePoint"/>
                        <mxPoint x="320" y="130" as="targetPoint"/>
                        <Array as="points"/>
                    </mxGeometry>
                </mxCell>
                <mxCell id="22" value="" style="endArrow=block;dashed=1;endFill=0;endSize=12;html=1;exitX=0.5;exitY=0;exitDx=0;exitDy=0;entryX=0.79;entryY=0.984;entryDx=0;entryDy=0;entryPerimeter=0;" edge="1" parent="1" source="17" target="3">
                    <mxGeometry width="160" relative="1" as="geometry">
                        <mxPoint x="210" y="250" as="sourcePoint"/>
                        <mxPoint x="335" y="144.03200000000004" as="targetPoint"/>
                        <Array as="points"/>
                    </mxGeometry>
                </mxCell>
                <mxCell id="23" value="Car" style="swimlane;fontStyle=1;align=center;verticalAlign=top;childLayout=stackLayout;horizontal=1;startSize=26;horizontalStack=0;resizeParent=1;resizeParentMax=0;resizeLast=0;collapsible=1;marginBottom=0;" vertex="1" parent="1">
                    <mxGeometry x="280" y="400" width="200" height="70" as="geometry"/>
                </mxCell>
                <mxCell id="26" value="+ start(): void&#10;+stopCar(): void" style="text;strokeColor=none;fillColor=none;align=left;verticalAlign=top;spacingLeft=4;spacingRight=4;overflow=hidden;rotatable=0;points=[[0,0.5],[1,0.5]];portConstraint=eastwest;" vertex="1" parent="23">
                    <mxGeometry y="26" width="200" height="44" as="geometry"/>
                </mxCell>
                <mxCell id="27" value="" style="endArrow=block;endFill=1;html=1;edgeStyle=orthogonalEdgeStyle;align=left;verticalAlign=top;exitX=0.494;exitY=1.154;exitDx=0;exitDy=0;exitPerimeter=0;entryX=0;entryY=0.25;entryDx=0;entryDy=0;" edge="1" parent="1" source="16" target="23">
                    <mxGeometry x="-1" relative="1" as="geometry">
                        <mxPoint x="210" y="63" as="sourcePoint"/>
                        <mxPoint x="199" y="450" as="targetPoint"/>
                        <Array as="points">
                            <mxPoint x="199" y="418"/>
                        </Array>
                    </mxGeometry>
                </mxCell>
                <mxCell id="28" value="" style="endArrow=block;endFill=1;html=1;edgeStyle=orthogonalEdgeStyle;align=left;verticalAlign=top;exitX=0.494;exitY=1.154;exitDx=0;exitDy=0;exitPerimeter=0;entryX=1;entryY=0.25;entryDx=0;entryDy=0;" edge="1" parent="1" target="23">
                    <mxGeometry x="-1" relative="1" as="geometry">
                        <mxPoint x="559.04" y="326.004" as="sourcePoint"/>
                        <mxPoint x="640" y="444" as="targetPoint"/>
                        <Array as="points">
                            <mxPoint x="559" y="418"/>
                        </Array>
                    </mxGeometry>
                </mxCell>
            </root>
        </mxGraphModel>
    </diagram>
</mxfile>